<svg  viewBox="0 0 24 24" fill="none" xmlns="http://www.w3.org/2000/svg">
    <path d="M17.9012 4.99851C18.1071 5.49653 18.5024 5.8924 19.0001 6.09907L20.7452 6.82198C21.2433 7.02828 21.639 7.42399 21.8453 7.92206C22.0516 8.42012 22.0516 8.97974 21.8453 9.47781L21.1229 11.2218C20.9165 11.7201 20.9162 12.2803 21.1236 12.7783L21.8447 14.5218C21.9469 14.7685 21.9996 15.0329 21.9996 15.2999C21.9997 15.567 21.9471 15.8314 21.8449 16.0781C21.7427 16.3249 21.5929 16.549 21.4041 16.7378C21.2152 16.9266 20.991 17.0764 20.7443 17.1785L19.0004 17.9009C18.5023 18.1068 18.1065 18.5021 17.8998 18.9998L17.1769 20.745C16.9707 21.2431 16.575 21.6388 16.0769 21.8451C15.5789 22.0514 15.0193 22.0514 14.5212 21.8451L12.7773 21.1227C12.2792 20.9169 11.7198 20.9173 11.2221 21.1239L9.47689 21.8458C8.97912 22.0516 8.42001 22.0514 7.92237 21.8453C7.42472 21.6391 7.02925 21.2439 6.82281 20.7464L6.09972 19.0006C5.8938 18.5026 5.49854 18.1067 5.00085 17.9L3.25567 17.1771C2.75784 16.9709 2.36226 16.5754 2.15588 16.0777C1.94951 15.5799 1.94923 15.0205 2.1551 14.5225L2.87747 12.7785C3.08326 12.2805 3.08283 11.721 2.8763 11.2233L2.15497 9.47678C2.0527 9.2301 2.00004 8.96568 2 8.69863C1.99996 8.43159 2.05254 8.16715 2.15473 7.92043C2.25692 7.67372 2.40671 7.44955 2.59557 7.26075C2.78442 7.07195 3.00862 6.92222 3.25537 6.8201L4.9993 6.09772C5.49687 5.89197 5.89249 5.4972 6.0993 5.00006L6.82218 3.25481C7.02848 2.75674 7.42418 2.36103 7.92222 2.15473C8.42027 1.94842 8.97987 1.94842 9.47792 2.15473L11.2218 2.87712C11.7199 3.08291 12.2793 3.08249 12.7771 2.87595L14.523 2.15585C15.021 1.94966 15.5804 1.9497 16.0784 2.15597C16.5763 2.36223 16.972 2.75783 17.1783 3.25576L17.9014 5.00153L17.9012 4.99851Z"
          stroke="currentColor" stroke-width="2" stroke-linecap="round" stroke-linejoin="round"/>
    <mask id="path-2-outside-1_131_120" maskUnits="userSpaceOnUse" x="3.58579" y="3.68629" width="15.5563"
          height="15.5563" fill="currentColor">
        <rect fill="white" x="3.58579" y="3.68629" width="15.5563" height="15.5563"/>
        <path d="M8.51874 18.0347C8.45098 18.1025 8.37032 18.138 8.27674 18.1412C8.18317 18.138 8.1025 18.1025 8.03474 18.0347L5.242 15.242C5.17424 15.1742 5.14036 15.0952 5.14036 15.0048C5.14036 14.908 5.17424 14.8258 5.242 14.758L7.1732 12.8268C7.24096 12.759 7.32163 12.7268 7.4152 12.73C7.50555 12.73 7.58461 12.7639 7.65237 12.8316C7.7169 12.8962 7.75078 12.9752 7.75401 13.0688C7.75724 13.1624 7.72497 13.243 7.65721 13.3108L5.96802 15L6.80051 15.8325L8.08798 14.545C8.15574 14.4773 8.23641 14.445 8.32998 14.4482C8.42356 14.4515 8.50422 14.487 8.57199 14.5547C8.63652 14.6192 8.6704 14.6983 8.67363 14.7919C8.67363 14.8822 8.63975 14.9613 8.57199 15.029L7.28452 16.3165L8.51874 17.5507C8.58651 17.6185 8.62039 17.7008 8.62039 17.7976C8.62039 17.8879 8.58651 17.967 8.51874 18.0347Z"/>
        <path d="M11.636 14.9078C11.5747 14.9691 11.4973 15.0013 11.4037 15.0046C11.3101 15.0078 11.2343 14.9804 11.1762 14.9223L9.21598 12.9621C9.15145 12.8975 9.11918 12.8201 9.11918 12.7297C9.12241 12.6362 9.15629 12.5571 9.22082 12.4926C9.28536 12.428 9.3628 12.3958 9.45315 12.3958C9.54672 12.3925 9.62578 12.4232 9.69031 12.4877L9.83551 12.6329C9.73549 12.2167 9.82261 11.8714 10.0969 11.5972C10.2614 11.4326 10.4244 11.36 10.5857 11.3793C10.7503 11.3955 10.8955 11.4665 11.0213 11.5923L11.1665 11.7375C11.2311 11.802 11.2633 11.8795 11.2633 11.9698C11.2633 12.0537 11.2311 12.1279 11.1665 12.1925C11.0891 12.2699 11.0084 12.3054 10.9245 12.299C10.8439 12.2893 10.7713 12.2522 10.7067 12.1876L10.6438 12.1247C10.5922 12.0731 10.5309 12.0828 10.4599 12.1538C10.4018 12.2118 10.3631 12.3086 10.3437 12.4442C10.3276 12.5765 10.3276 12.6991 10.3437 12.812C10.3599 12.9637 10.3986 13.0927 10.4599 13.1992C10.5244 13.3025 10.6148 13.4122 10.7309 13.5283L11.6457 14.4528C11.7038 14.5109 11.7312 14.5867 11.728 14.6803C11.7248 14.7739 11.6941 14.8497 11.636 14.9078Z"/>
        <path d="M14.5887 11.9551C14.3596 12.1842 14.1047 12.3423 13.824 12.4294C13.5432 12.5101 13.2609 12.5117 12.977 12.4343C12.6898 12.3536 12.422 12.189 12.1735 11.9406C11.9702 11.7373 11.8218 11.4985 11.7282 11.2242C11.6346 10.9435 11.6137 10.6644 11.6653 10.3869C11.7201 10.1062 11.8541 9.85933 12.067 9.64637C12.2639 9.44954 12.472 9.32208 12.6914 9.264C12.9108 9.19947 13.1109 9.18656 13.2916 9.22528C13.4723 9.264 13.6062 9.32692 13.6933 9.41405C13.7352 9.45599 13.7627 9.50923 13.7756 9.57377C13.7885 9.6383 13.7853 9.70929 13.7659 9.78673L13.2141 11.8293C13.3593 11.8841 13.5158 11.8825 13.6836 11.8244C13.8546 11.7631 14.0111 11.6615 14.1531 11.5195C14.3403 11.3323 14.4306 11.1032 14.4241 10.8322C14.4241 10.7289 14.4516 10.6499 14.5064 10.595C14.571 10.5305 14.6452 10.4982 14.7291 10.4982C14.8162 10.495 14.8904 10.524 14.9517 10.5853C15.0033 10.637 15.0324 10.7047 15.0388 10.7886C15.0485 10.979 15.013 11.1855 14.9324 11.4082C14.8517 11.6244 14.7371 11.8067 14.5887 11.9551ZM13.156 9.83513C13.0496 9.80609 12.9447 9.81093 12.8414 9.84965C12.735 9.88515 12.6333 9.9513 12.5365 10.0481C12.3526 10.232 12.2606 10.4498 12.2606 10.7015C12.2639 10.95 12.3477 11.1758 12.5123 11.3791C12.5543 11.434 12.6091 11.4953 12.6769 11.563L13.156 9.83513Z"/>
        <path d="M17.305 9.23878C17.0759 9.46788 16.821 9.62599 16.5403 9.71311C16.2596 9.79378 15.9772 9.79539 15.6933 9.71795C15.4061 9.63728 15.1383 9.47272 14.8898 9.22426C14.6865 9.02098 14.5381 8.7822 14.4445 8.50793C14.351 8.2272 14.33 7.94809 14.3816 7.67059C14.4365 7.38987 14.5704 7.14302 14.7833 6.93006C14.9802 6.73323 15.1883 6.60577 15.4077 6.54769C15.6271 6.48316 15.8272 6.47025 16.0079 6.50897C16.1886 6.54769 16.3225 6.61061 16.4096 6.69773C16.4515 6.73968 16.479 6.79292 16.4919 6.85746C16.5048 6.92199 16.5016 6.99298 16.4822 7.07042L15.9304 9.11294C16.0756 9.16779 16.2321 9.16618 16.3999 9.1081C16.5709 9.04679 16.7274 8.94515 16.8694 8.80317C17.0566 8.61602 17.1469 8.38693 17.1405 8.11588C17.1405 8.01263 17.1679 7.93357 17.2227 7.87872C17.2873 7.81418 17.3615 7.78191 17.4454 7.78191C17.5325 7.77869 17.6067 7.80773 17.668 7.86904C17.7197 7.92066 17.7487 7.98843 17.7551 8.07232C17.7648 8.2627 17.7293 8.46921 17.6487 8.69185C17.568 8.90804 17.4534 9.09035 17.305 9.23878ZM15.8724 7.11882C15.7659 7.08978 15.661 7.09462 15.5577 7.13334C15.4513 7.16884 15.3496 7.23498 15.2528 7.33179C15.0689 7.51571 14.9769 7.73351 14.9769 7.9852C14.9802 8.23366 15.0641 8.45953 15.2286 8.66281C15.2706 8.71767 15.3254 8.77897 15.3932 8.84673L15.8724 7.11882Z"/>
    </mask>
    <path d="M8.51874 18.0347C8.45098 18.1025 8.37032 18.138 8.27674 18.1412C8.18317 18.138 8.1025 18.1025 8.03474 18.0347L5.242 15.242C5.17424 15.1742 5.14036 15.0952 5.14036 15.0048C5.14036 14.908 5.17424 14.8258 5.242 14.758L7.1732 12.8268C7.24096 12.759 7.32163 12.7268 7.4152 12.73C7.50555 12.73 7.58461 12.7639 7.65237 12.8316C7.7169 12.8962 7.75078 12.9752 7.75401 13.0688C7.75724 13.1624 7.72497 13.243 7.65721 13.3108L5.96802 15L6.80051 15.8325L8.08798 14.545C8.15574 14.4773 8.23641 14.445 8.32998 14.4482C8.42356 14.4515 8.50422 14.487 8.57199 14.5547C8.63652 14.6192 8.6704 14.6983 8.67363 14.7919C8.67363 14.8822 8.63975 14.9613 8.57199 15.029L7.28452 16.3165L8.51874 17.5507C8.58651 17.6185 8.62039 17.7008 8.62039 17.7976C8.62039 17.8879 8.58651 17.967 8.51874 18.0347Z"
          fill="currentColor"/>
    <path d="M11.636 14.9078C11.5747 14.9691 11.4973 15.0013 11.4037 15.0046C11.3101 15.0078 11.2343 14.9804 11.1762 14.9223L9.21598 12.9621C9.15145 12.8975 9.11918 12.8201 9.11918 12.7297C9.12241 12.6362 9.15629 12.5571 9.22082 12.4926C9.28536 12.428 9.3628 12.3958 9.45315 12.3958C9.54672 12.3925 9.62578 12.4232 9.69031 12.4877L9.83551 12.6329C9.73549 12.2167 9.82261 11.8714 10.0969 11.5972C10.2614 11.4326 10.4244 11.36 10.5857 11.3793C10.7503 11.3955 10.8955 11.4665 11.0213 11.5923L11.1665 11.7375C11.2311 11.802 11.2633 11.8795 11.2633 11.9698C11.2633 12.0537 11.2311 12.1279 11.1665 12.1925C11.0891 12.2699 11.0084 12.3054 10.9245 12.299C10.8439 12.2893 10.7713 12.2522 10.7067 12.1876L10.6438 12.1247C10.5922 12.0731 10.5309 12.0828 10.4599 12.1538C10.4018 12.2118 10.3631 12.3086 10.3437 12.4442C10.3276 12.5765 10.3276 12.6991 10.3437 12.812C10.3599 12.9637 10.3986 13.0927 10.4599 13.1992C10.5244 13.3025 10.6148 13.4122 10.7309 13.5283L11.6457 14.4528C11.7038 14.5109 11.7312 14.5867 11.728 14.6803C11.7248 14.7739 11.6941 14.8497 11.636 14.9078Z"
          fill="currentColor"/>
    <path d="M14.5887 11.9551C14.3596 12.1842 14.1047 12.3423 13.824 12.4294C13.5432 12.5101 13.2609 12.5117 12.977 12.4343C12.6898 12.3536 12.422 12.189 12.1735 11.9406C11.9702 11.7373 11.8218 11.4985 11.7282 11.2242C11.6346 10.9435 11.6137 10.6644 11.6653 10.3869C11.7201 10.1062 11.8541 9.85933 12.067 9.64637C12.2639 9.44954 12.472 9.32208 12.6914 9.264C12.9108 9.19947 13.1109 9.18656 13.2916 9.22528C13.4723 9.264 13.6062 9.32692 13.6933 9.41405C13.7352 9.45599 13.7627 9.50923 13.7756 9.57377C13.7885 9.6383 13.7853 9.70929 13.7659 9.78673L13.2141 11.8293C13.3593 11.8841 13.5158 11.8825 13.6836 11.8244C13.8546 11.7631 14.0111 11.6615 14.1531 11.5195C14.3403 11.3323 14.4306 11.1032 14.4241 10.8322C14.4241 10.7289 14.4516 10.6499 14.5064 10.595C14.571 10.5305 14.6452 10.4982 14.7291 10.4982C14.8162 10.495 14.8904 10.524 14.9517 10.5853C15.0033 10.637 15.0324 10.7047 15.0388 10.7886C15.0485 10.979 15.013 11.1855 14.9324 11.4082C14.8517 11.6244 14.7371 11.8067 14.5887 11.9551ZM13.156 9.83513C13.0496 9.80609 12.9447 9.81093 12.8414 9.84965C12.735 9.88515 12.6333 9.9513 12.5365 10.0481C12.3526 10.232 12.2606 10.4498 12.2606 10.7015C12.2639 10.95 12.3477 11.1758 12.5123 11.3791C12.5543 11.434 12.6091 11.4953 12.6769 11.563L13.156 9.83513Z"
          fill="currentColor"/>
    <path d="M17.305 9.23878C17.0759 9.46788 16.821 9.62599 16.5403 9.71311C16.2596 9.79378 15.9772 9.79539 15.6933 9.71795C15.4061 9.63728 15.1383 9.47272 14.8898 9.22426C14.6865 9.02098 14.5381 8.7822 14.4445 8.50793C14.351 8.2272 14.33 7.94809 14.3816 7.67059C14.4365 7.38987 14.5704 7.14302 14.7833 6.93006C14.9802 6.73323 15.1883 6.60577 15.4077 6.54769C15.6271 6.48316 15.8272 6.47025 16.0079 6.50897C16.1886 6.54769 16.3225 6.61061 16.4096 6.69773C16.4515 6.73968 16.479 6.79292 16.4919 6.85746C16.5048 6.92199 16.5016 6.99298 16.4822 7.07042L15.9304 9.11294C16.0756 9.16779 16.2321 9.16618 16.3999 9.1081C16.5709 9.04679 16.7274 8.94515 16.8694 8.80317C17.0566 8.61602 17.1469 8.38693 17.1405 8.11588C17.1405 8.01263 17.1679 7.93357 17.2227 7.87872C17.2873 7.81418 17.3615 7.78191 17.4454 7.78191C17.5325 7.77869 17.6067 7.80773 17.668 7.86904C17.7197 7.92066 17.7487 7.98843 17.7551 8.07232C17.7648 8.2627 17.7293 8.46921 17.6487 8.69185C17.568 8.90804 17.4534 9.09035 17.305 9.23878ZM15.8724 7.11882C15.7659 7.08978 15.661 7.09462 15.5577 7.13334C15.4513 7.16884 15.3496 7.23498 15.2528 7.33179C15.0689 7.51571 14.9769 7.73351 14.9769 7.9852C14.9802 8.23366 15.0641 8.45953 15.2286 8.66281C15.2706 8.71767 15.3254 8.77897 15.3932 8.84673L15.8724 7.11882Z"
          fill="currentColor"/>
    <path d="M8.51874 18.0347C8.45098 18.1025 8.37032 18.138 8.27674 18.1412C8.18317 18.138 8.1025 18.1025 8.03474 18.0347L5.242 15.242C5.17424 15.1742 5.14036 15.0952 5.14036 15.0048C5.14036 14.908 5.17424 14.8258 5.242 14.758L7.1732 12.8268C7.24096 12.759 7.32163 12.7268 7.4152 12.73C7.50555 12.73 7.58461 12.7639 7.65237 12.8316C7.7169 12.8962 7.75078 12.9752 7.75401 13.0688C7.75724 13.1624 7.72497 13.243 7.65721 13.3108L5.96802 15L6.80051 15.8325L8.08798 14.545C8.15574 14.4773 8.23641 14.445 8.32998 14.4482C8.42356 14.4515 8.50422 14.487 8.57199 14.5547C8.63652 14.6192 8.6704 14.6983 8.67363 14.7919C8.67363 14.8822 8.63975 14.9613 8.57199 15.029L7.28452 16.3165L8.51874 17.5507C8.58651 17.6185 8.62039 17.7008 8.62039 17.7976C8.62039 17.8879 8.58651 17.967 8.51874 18.0347Z"
          stroke="currentColor" stroke-width="0.4" mask="url(#path-2-outside-1_131_120)"/>
    <path d="M11.636 14.9078C11.5747 14.9691 11.4973 15.0013 11.4037 15.0046C11.3101 15.0078 11.2343 14.9804 11.1762 14.9223L9.21598 12.9621C9.15145 12.8975 9.11918 12.8201 9.11918 12.7297C9.12241 12.6362 9.15629 12.5571 9.22082 12.4926C9.28536 12.428 9.3628 12.3958 9.45315 12.3958C9.54672 12.3925 9.62578 12.4232 9.69031 12.4877L9.83551 12.6329C9.73549 12.2167 9.82261 11.8714 10.0969 11.5972C10.2614 11.4326 10.4244 11.36 10.5857 11.3793C10.7503 11.3955 10.8955 11.4665 11.0213 11.5923L11.1665 11.7375C11.2311 11.802 11.2633 11.8795 11.2633 11.9698C11.2633 12.0537 11.2311 12.1279 11.1665 12.1925C11.0891 12.2699 11.0084 12.3054 10.9245 12.299C10.8439 12.2893 10.7713 12.2522 10.7067 12.1876L10.6438 12.1247C10.5922 12.0731 10.5309 12.0828 10.4599 12.1538C10.4018 12.2118 10.3631 12.3086 10.3437 12.4442C10.3276 12.5765 10.3276 12.6991 10.3437 12.812C10.3599 12.9637 10.3986 13.0927 10.4599 13.1992C10.5244 13.3025 10.6148 13.4122 10.7309 13.5283L11.6457 14.4528C11.7038 14.5109 11.7312 14.5867 11.728 14.6803C11.7248 14.7739 11.6941 14.8497 11.636 14.9078Z"
          stroke="currentColor" stroke-width="0.4" mask="url(#path-2-outside-1_131_120)"/>
    <path d="M14.5887 11.9551C14.3596 12.1842 14.1047 12.3423 13.824 12.4294C13.5432 12.5101 13.2609 12.5117 12.977 12.4343C12.6898 12.3536 12.422 12.189 12.1735 11.9406C11.9702 11.7373 11.8218 11.4985 11.7282 11.2242C11.6346 10.9435 11.6137 10.6644 11.6653 10.3869C11.7201 10.1062 11.8541 9.85933 12.067 9.64637C12.2639 9.44954 12.472 9.32208 12.6914 9.264C12.9108 9.19947 13.1109 9.18656 13.2916 9.22528C13.4723 9.264 13.6062 9.32692 13.6933 9.41405C13.7352 9.45599 13.7627 9.50923 13.7756 9.57377C13.7885 9.6383 13.7853 9.70929 13.7659 9.78673L13.2141 11.8293C13.3593 11.8841 13.5158 11.8825 13.6836 11.8244C13.8546 11.7631 14.0111 11.6615 14.1531 11.5195C14.3403 11.3323 14.4306 11.1032 14.4241 10.8322C14.4241 10.7289 14.4516 10.6499 14.5064 10.595C14.571 10.5305 14.6452 10.4982 14.7291 10.4982C14.8162 10.495 14.8904 10.524 14.9517 10.5853C15.0033 10.637 15.0324 10.7047 15.0388 10.7886C15.0485 10.979 15.013 11.1855 14.9324 11.4082C14.8517 11.6244 14.7371 11.8067 14.5887 11.9551ZM13.156 9.83513C13.0496 9.80609 12.9447 9.81093 12.8414 9.84965C12.735 9.88515 12.6333 9.9513 12.5365 10.0481C12.3526 10.232 12.2606 10.4498 12.2606 10.7015C12.2639 10.95 12.3477 11.1758 12.5123 11.3791C12.5543 11.434 12.6091 11.4953 12.6769 11.563L13.156 9.83513Z"
          stroke="currentColor" stroke-width="0.4" mask="url(#path-2-outside-1_131_120)"/>
    <path d="M17.305 9.23878C17.0759 9.46788 16.821 9.62599 16.5403 9.71311C16.2596 9.79378 15.9772 9.79539 15.6933 9.71795C15.4061 9.63728 15.1383 9.47272 14.8898 9.22426C14.6865 9.02098 14.5381 8.7822 14.4445 8.50793C14.351 8.2272 14.33 7.94809 14.3816 7.67059C14.4365 7.38987 14.5704 7.14302 14.7833 6.93006C14.9802 6.73323 15.1883 6.60577 15.4077 6.54769C15.6271 6.48316 15.8272 6.47025 16.0079 6.50897C16.1886 6.54769 16.3225 6.61061 16.4096 6.69773C16.4515 6.73968 16.479 6.79292 16.4919 6.85746C16.5048 6.92199 16.5016 6.99298 16.4822 7.07042L15.9304 9.11294C16.0756 9.16779 16.2321 9.16618 16.3999 9.1081C16.5709 9.04679 16.7274 8.94515 16.8694 8.80317C17.0566 8.61602 17.1469 8.38693 17.1405 8.11588C17.1405 8.01263 17.1679 7.93357 17.2227 7.87872C17.2873 7.81418 17.3615 7.78191 17.4454 7.78191C17.5325 7.77869 17.6067 7.80773 17.668 7.86904C17.7197 7.92066 17.7487 7.98843 17.7551 8.07232C17.7648 8.2627 17.7293 8.46921 17.6487 8.69185C17.568 8.90804 17.4534 9.09035 17.305 9.23878ZM15.8724 7.11882C15.7659 7.08978 15.661 7.09462 15.5577 7.13334C15.4513 7.16884 15.3496 7.23498 15.2528 7.33179C15.0689 7.51571 14.9769 7.73351 14.9769 7.9852C14.9802 8.23366 15.0641 8.45953 15.2286 8.66281C15.2706 8.71767 15.3254 8.77897 15.3932 8.84673L15.8724 7.11882Z"
          stroke="currentColor" stroke-width="0.4" mask="url(#path-2-outside-1_131_120)"/>
</svg>
