<svg viewBox="0 0 404 404" fill="none" xmlns="http://www.w3.org/2000/svg">
    <g clip-path="url(#clip0_442_1222)">
        <path d="M354.808 51.5445V52.7224L356.082 53.1311C357.861 53.684 361.971 55.7272 363.774 56.9291C367.692 59.5734 372.404 63.8763 376.058 68.2032C378.461 71.0397 384.279 78.708 385.913 81.208C390.697 88.5878 395.24 101.424 396.707 111.761C396.995 113.852 397.308 115.559 397.428 115.559C397.524 115.559 397.596 101.545 397.596 84.4291V53.2993H394.543C387.428 53.2753 375.577 52.5061 365.505 51.3763C362.067 50.9916 358.245 50.607 357.043 50.5109L354.808 50.3426V51.5445Z"
              fill="currentColor"/>
        <path d="M326.707 51.4003C317.332 52.6503 309.663 54.8138 302.452 58.2513C290.409 63.9724 282.428 71.6407 277.139 82.5061C273.462 90.0782 271.851 97.6022 271.827 107.146C271.827 112.698 272.212 116.136 273.293 120.415C275.361 128.612 280.481 137.146 287.5 144.165C292.596 149.237 298.005 153.396 306.058 158.42L310.553 161.232H355.769C380.625 161.232 400.962 161.16 400.962 161.064C400.962 160.679 396.995 156.064 394.591 153.66C390.361 149.405 385.24 145.295 379.327 141.4C375 138.564 364.135 132.194 351.803 125.295C332.428 114.453 325.096 109.357 318.942 102.458C311.346 93.9484 308.846 85.7513 310.841 75.8474C313.029 64.9099 321.226 55.1744 330 53.1311L331.731 52.7224V51.809C331.731 50.9436 331.707 50.8955 330.962 50.9195C330.529 50.9195 328.606 51.1359 326.707 51.4003Z"
              fill="currentColor"/>
        <path d="M0 53.0349C0 53.1551 0.336538 53.3715 0.769231 53.5157C3.77404 54.5734 7.06731 59.0686 8.70192 64.3571L9.25481 66.1599L9.32692 113.684L9.375 161.232H31.25H53.125L53.1731 113.804L53.2452 66.4003L53.774 64.5734C55.2404 59.3811 58.0048 55.3667 61.1298 53.8282C61.7548 53.5157 62.2596 53.1551 62.2596 53.0349C62.2596 52.9147 50.1683 52.8186 31.1298 52.8186C12.7885 52.8186 0 52.9147 0 53.0349Z"
              fill="currentColor"/>
        <path d="M94.4712 84.3089C94.4712 101.617 94.5673 115.799 94.6635 115.799C94.7597 115.799 94.976 114.934 95.1443 113.9C95.8654 109.261 99.5433 96.6407 102.067 90.1262C104.279 84.4291 107.788 78.107 111.707 72.7705C114.303 69.2849 120.409 63.1791 123.558 60.9435C127.476 58.1791 131.923 56.208 136.442 55.2945L138.462 54.8618V53.8522V52.8185H116.466H94.4712V84.3089Z"
              fill="currentColor"/>
        <path d="M150.144 54.7897C150.024 56.5446 146.851 158.828 146.875 160.559V161.232H168.63H190.385L190.481 160.679C190.577 160.15 193.774 56.208 193.75 53.9484V52.8186H172.019H150.288L150.144 54.7897Z"
              fill="currentColor"/>
        <path d="M218.822 53.5157C211.899 54.6214 207.067 58.6599 205.12 64.958C204.784 66.0878 204.687 67.1455 204.712 69.7657C204.712 72.7464 204.784 73.3474 205.361 75.0541C206.707 79.1166 209.303 82.0974 213.486 84.4051C216.587 86.1118 220 87.1214 223.558 87.3858L225.601 87.5541L225.529 88.756C225.264 92.8907 222.981 97.3618 219.014 101.472C215.673 104.934 211.635 107.626 207.572 109.093L206.37 109.525L207.452 109.405C210.986 108.948 216.25 107.314 219.808 105.535C226.803 102.025 232.837 95.8955 236.154 88.8522C238.654 83.5878 239.543 79.6455 239.543 73.732C239.519 68.6358 239.087 66.5445 237.187 62.6743C236.154 60.5589 235.649 59.8378 234.014 58.2032C230.913 55.0541 227.476 53.6118 222.596 53.4195C221.202 53.3714 219.519 53.4195 218.822 53.5157Z"
              fill="currentColor"/>
        <path d="M195.673 172.795C184.495 174.02 174.159 177.819 165.144 184.02C152.86 192.458 144.086 204.862 140.505 218.804C139.11 224.213 138.822 226.737 138.822 233.468C138.822 240.006 139.038 242.025 140.385 247.482C141.418 251.689 142.596 254.91 144.711 259.189C147.909 265.727 151.514 270.679 156.899 275.895C167.235 285.968 180.048 292.001 194.952 293.828C199.062 294.333 208.87 294.189 212.74 293.564C219.687 292.482 225.721 290.559 232.091 287.434C238.846 284.117 244.135 280.367 249.159 275.319C258.75 265.679 264.615 253.708 266.37 240.198C266.803 236.929 266.731 229.453 266.226 225.775C264.519 212.939 258.437 200.703 249.159 191.4C239.351 181.617 226.899 175.391 212.5 173.131C209.519 172.65 198.846 172.434 195.673 172.795ZM192.308 178.468C198.341 180.102 205.937 187.843 212.187 198.732C219.351 211.16 225.12 227.843 227.74 243.564C229.567 254.477 229.808 264.886 228.461 272.77C227.163 280.295 224.159 285.775 220.216 287.746C218.101 288.804 216.49 289.02 214.159 288.54C203.63 286.352 191.226 269.141 183.389 245.847C175.673 222.819 173.87 200.222 178.726 187.29C180.673 182.145 184.038 178.708 187.764 178.083C189.255 177.843 190.409 177.939 192.308 178.468Z"
              fill="currentColor"/>
        <path d="M403.005 173.155C401.178 174.67 397.428 176.977 394.687 178.275C389.014 180.944 383.462 182.482 375.865 183.468C372.356 183.924 363.486 184.357 361.803 184.141L360.577 183.996L360.529 223.035L360.457 262.073L359.567 264.621C358.51 267.698 356.803 271.16 355.409 273.131C354.207 274.814 351.106 277.867 349.447 278.996C347.668 280.198 344.76 281.593 343.029 282.025C338.437 283.227 333.149 281.929 330.096 278.852C328.389 277.145 327.404 275.463 326.442 272.602C324.952 268.107 325 270.15 324.832 219.213C324.76 193.684 324.639 172.77 324.591 172.77C324.567 172.77 323.798 173.371 322.909 174.093C321.995 174.814 320.144 176.064 318.774 176.881C310.144 182.025 299.279 184.525 286.442 184.261L282.139 184.189L282.308 222.097C282.404 245.535 282.548 260.775 282.716 262.001C283.51 268.347 285.553 274.069 288.654 278.42C292.428 283.78 298.678 288.444 305.769 291.16C313.221 294.045 323.173 294.814 331.683 293.179C336.995 292.145 343.173 289.621 347.788 286.545C352.933 283.155 357.187 277.65 359.76 271.112L360.553 269.045L360.577 281.713V294.405H382.067H403.582L403.654 233.516C403.702 200.054 403.726 172.626 403.726 172.602C403.726 172.602 403.413 172.843 403.005 173.155Z"
              fill="currentColor"/>
        <path d="M10.1923 173.323C10.7692 175.679 44.0625 276.568 44.8798 278.54C47.5481 284.814 51.2019 289.405 55.1683 291.448C60.4568 294.165 67.6443 295.078 81.4423 294.79L88.726 294.645L88.5818 295.174C88.0769 296.857 86.1539 301.713 84.9519 304.381C83.4616 307.674 81.0096 312.121 79.0625 314.982C75.9375 319.621 70.4087 325.511 66.4183 328.468C59.351 333.708 51.0096 337.001 41.3462 338.371C34.9039 339.309 30.8654 339.237 26.8991 338.131C21.6827 336.713 17.6443 333.179 15.5769 328.251C15.1923 327.338 14.9039 326.496 14.9519 326.376C15 326.256 15.5529 326.785 16.1779 327.578C18.7019 330.751 22.8846 333.371 26.7789 334.213C29.375 334.766 34.0385 334.573 36.4183 333.828C40 332.698 43.0048 330.679 45.4568 327.746C51.4664 320.583 51.1058 309.573 44.6394 302.674C41.0096 298.78 36.4423 296.809 30.9856 296.809C26.7548 296.809 24.0385 297.554 20.8173 299.621C16.25 302.554 13.3894 306.785 12.2116 312.338C11.7548 314.549 11.6587 315.679 11.6587 319.525C11.6587 323.443 11.7308 324.453 12.2116 326.593C13.7741 333.54 16.875 338.948 22.3798 344.309C27.7404 349.501 34.1106 352.386 43.0769 353.66C50.4568 354.718 56.6587 353.323 62.8606 349.261C64.976 347.867 69.3991 343.443 71.2019 340.919C75.9616 334.189 80.3366 325.679 85.2164 313.636C90.1202 301.52 101.635 269.79 120.385 216.641C127.62 196.136 128.389 193.66 129.207 188.227C130.313 180.871 128.918 175.967 125.192 174.068C122.861 172.891 120.865 172.77 102.644 172.77H85.9375L87.476 173.66C89.7356 175.006 93.1971 177.987 95.1202 180.27C99.7837 185.775 103.438 193.155 105.024 200.342C106.731 207.987 106.899 218.275 105.505 229.621C104.111 240.943 101.274 254.982 97.9327 266.881C96.5866 271.737 92.9808 282.867 92.7885 282.867C92.6923 282.867 83.9664 258.131 73.3654 227.867L54.1346 172.891L32.0914 172.818L10.0481 172.77L10.1923 173.323Z"
              fill="currentColor"/>
        <path d="M278.414 317.722C272.236 319.333 268.269 324.477 268.269 330.823C268.269 334.79 269.495 337.746 272.212 340.463C275 343.251 278.005 344.405 282.356 344.405C286.058 344.405 289.495 343.371 291.563 341.641L292.308 340.992V335.968V330.944H290.865H289.423V335.463V339.982L288.534 340.487C286.635 341.52 285.096 341.857 282.452 341.857C280.505 341.833 279.615 341.713 278.51 341.304C275.817 340.343 273.846 338.732 272.524 336.448C270.601 333.107 270.697 328.131 272.74 324.886C276.13 319.525 284.207 318.107 289.447 321.929L290.673 322.843L291.539 321.953L292.428 321.064L291.466 320.198C288.51 317.602 282.957 316.545 278.414 317.722Z"
              fill="currentColor"/>
        <path d="M364.712 317.722C362.236 318.371 360.216 319.525 358.534 321.208C353.293 326.448 353.341 335.367 358.63 340.559C361.346 343.227 364.399 344.405 368.63 344.405C372.404 344.405 375.289 343.468 377.428 341.52L378.486 340.583L377.596 339.694L376.731 338.804L375.769 339.573C371.274 343.131 364.447 342.65 360.481 338.492C357.284 335.15 356.539 329.814 358.678 325.607C359.327 324.333 361.37 322.17 362.62 321.424C366.779 318.996 372.236 319.285 375.721 322.073L376.707 322.867L377.572 321.977L378.462 321.088L377.789 320.391C376.995 319.573 374.808 318.347 373.149 317.819C372.524 317.626 370.745 317.41 369.231 317.338C366.995 317.266 366.13 317.338 364.712 317.722Z"
              fill="currentColor"/>
        <path d="M250.986 318.492C250.745 319.069 248.077 324.886 245.072 331.424C242.067 337.963 239.567 343.516 239.495 343.732C239.375 344.117 239.543 344.165 240.793 344.165H242.236L243.798 340.727L245.337 337.314H252.885H260.433L261.947 340.679L263.438 344.045L265 344.117L266.563 344.189L263.053 336.545C261.13 332.338 258.39 326.352 256.971 323.251L254.399 317.602L252.909 317.53L251.442 317.458L250.986 318.492ZM256.082 327.53C257.765 331.328 259.135 334.501 259.135 334.597C259.135 334.718 256.274 334.79 252.789 334.79H246.442L249.615 327.698C251.346 323.804 252.813 320.631 252.885 320.631C252.957 320.631 254.375 323.732 256.082 327.53Z"
              fill="currentColor"/>
        <path d="M300.24 330.823V344.165H309.736H319.231V342.963V341.761H311.178H303.125V336.833V331.905H309.976H316.827V330.703V329.501H309.976H303.125V324.694V319.886H310.817H318.51V318.684V317.482H309.375H300.24V330.823Z"
              fill="currentColor"/>
        <path d="M325.962 330.823V344.165H327.284H328.606V333.444C328.606 324.621 328.654 322.746 328.918 322.963C329.087 323.107 332.957 327.939 337.524 333.708L345.793 344.165H347.067H348.317V330.823V317.482H346.875H345.433L345.385 328.227L345.313 338.972L336.779 328.227L328.269 317.482H327.116H325.962V330.823Z"
              fill="currentColor"/>
        <path d="M379.808 317.602C379.808 317.674 382.187 321.641 385.096 326.4L390.385 335.054V339.597V344.165H391.827H393.269V339.525V334.886L398.101 326.953C400.769 322.602 403.149 318.684 403.413 318.251L403.894 317.482H402.452H401.01L396.466 324.91C393.99 328.996 391.875 332.266 391.779 332.17C391.683 332.097 389.615 328.756 387.187 324.814L382.788 317.602L381.298 317.53C380.481 317.482 379.808 317.53 379.808 317.602Z"
              fill="currentColor"/>
    </g>
</svg>
