<svg viewBox="0 0 800 800" fill="none" xmlns="http://www.w3.org/2000/svg">
    <rect width="800" height="800" rx="400" fill="#66C61C"/>
    <path d="M253.226 191.233C214.426 198.299 182.293 216.166 155.226 246.033C134.026 269.366 121.493 295.899 118.026 324.699C112.293 371.766 130.826 416.299 167.626 443.899C186.959 458.566 204.693 465.499 221.093 465.099L230.159 464.833L230.959 535.366C231.359 581.633 232.159 606.433 233.093 607.633C236.693 612.166 239.226 612.166 253.759 607.366C305.493 590.299 373.893 581.766 432.293 585.233C483.493 588.166 522.959 594.833 557.226 606.566C571.893 611.499 574.426 611.499 577.893 607.099C580.693 603.633 580.693 602.433 580.693 531.099V458.566H588.559C602.826 458.566 620.826 451.499 636.826 439.766C658.426 423.899 672.826 402.433 681.493 373.233C683.626 366.033 684.026 360.566 683.893 341.899C683.893 321.099 683.626 318.299 680.159 307.366C668.959 270.566 643.759 240.833 609.359 223.633C587.359 212.566 567.759 207.899 543.759 207.899C526.159 207.899 512.159 210.433 498.559 216.033C483.093 222.433 482.826 222.966 492.293 227.099C496.693 229.099 502.693 233.099 505.493 236.033C508.293 238.833 511.493 241.233 512.559 241.233C513.626 241.233 518.426 239.633 523.226 237.766C530.426 234.833 534.826 234.033 547.626 233.499C571.759 232.566 589.893 237.366 608.693 249.899C629.226 263.499 647.759 289.766 654.293 314.433C657.893 327.899 658.159 351.633 654.826 363.766C645.626 397.766 622.559 421.899 591.893 429.766C587.359 430.966 578.293 431.899 571.893 431.899H560.026L560.426 485.899L560.826 539.899L551.759 536.033C533.093 528.033 498.559 519.499 467.359 515.233C446.159 512.299 393.893 511.099 371.359 513.099C325.626 517.099 292.426 524.166 262.293 536.033C256.959 538.166 252.293 539.899 252.026 539.899C251.626 539.899 251.359 516.299 251.359 487.499V435.233H233.759C218.559 435.099 214.959 434.699 208.559 432.166C197.359 427.766 185.226 419.366 176.293 410.033C145.493 377.766 140.959 329.633 164.826 285.366C192.826 233.366 263.759 198.033 332.693 201.766C350.293 202.699 350.026 201.633 331.226 196.566C304.293 189.366 274.826 187.233 253.226 191.233Z"
          fill="white"/>
</svg>
