<?xml version="1.0" standalone="no"?>
<!DOCTYPE svg>
<svg version="1.0" xmlns="http://www.w3.org/2000/svg"
     viewBox="0 0 2080.000000 2080.000000"
     preserveAspectRatio="xMidYMid meet">

    <g transform="translate(0.000000,2080.000000) scale(0.100000,-0.100000)"
       fill="currentColor" stroke="none">
        <path d="M16460 16903 l0 -49 53 -17 c74 -23 245 -108 320 -158 163 -110 359
-289 511 -469 100 -118 342 -437 410 -541 199 -307 388 -841 449 -1271 12 -87
25 -158 30 -158 4 0 7 583 7 1295 l0 1295 -127 0 c-296 1 -789 33 -1208 80
-143 16 -302 32 -352 36 l-93 7 0 -50z"/>
        <path d="M15291 16909 c-390 -52 -709 -142 -1009 -285 -501 -238 -833 -557
-1053 -1009 -153 -315 -220 -628 -221 -1025 0 -231 16 -374 61 -552 86 -341
299 -696 591 -988 212 -211 437 -384 772 -593 l187 -117 1881 0 c1034 0 1880
3 1880 7 0 16 -165 208 -265 308 -176 177 -389 348 -635 510 -180 118 -632
383 -1145 670 -806 451 -1111 663 -1367 950 -316 354 -420 695 -337 1107 91
455 432 860 797 945 l72 17 0 38 c0 36 -1 38 -32 37 -18 0 -98 -9 -177 -20z"/>
        <path d="M1700 16841 c0 -5 14 -14 32 -20 125 -44 262 -231 330 -451 l23 -75
3 -1977 2 -1978 910 0 910 0 2 1973 3 1972 22 76 c61 216 176 383 306 447 26
13 47 28 47 33 0 5 -503 9 -1295 9 -763 0 -1295 -4 -1295 -9z"/>
        <path d="M5630 15540 c0 -720 4 -1310 8 -1310 4 0 13 36 20 79 30 193 183 718
288 989 92 237 238 500 401 722 108 145 362 399 493 492 163 115 348 197 536
235 l84 18 0 42 0 43 -915 0 -915 0 0 -1310z"/>
        <path d="M7946 16768 c-5 -73 -137 -4328 -136 -4400 l0 -28 905 0 905 0 4 23
c4 22 137 4346 136 4440 l0 47 -904 0 -904 0 -6 -82z"/>
        <path d="M10803 16821 c-288 -46 -489 -214 -570 -476 -14 -47 -18 -91 -17
-200 0 -124 3 -149 27 -220 56 -169 164 -293 338 -389 129 -71 271 -113 419
-124 l85 -7 -3 -50 c-11 -172 -106 -358 -271 -529 -139 -144 -307 -256 -476
-317 l-50 -18 45 5 c147 19 366 87 514 161 291 146 542 401 680 694 104 219
141 383 141 629 -1 212 -19 299 -98 460 -43 88 -64 118 -132 186 -129 131
-272 191 -475 199 -58 2 -128 0 -157 -4z"/>
        <path d="M9840 11859 c-465 -51 -895 -209 -1270 -467 -511 -351 -876 -867
-1025 -1447 -58 -225 -70 -330 -70 -610 0 -272 9 -356 65 -583 43 -175 92
-309 180 -487 133 -272 283 -478 507 -695 430 -419 963 -670 1583 -746 171
-21 579 -15 740 11 289 45 540 125 805 255 281 138 501 294 710 504 399 401
643 899 716 1461 18 136 15 447 -6 600 -71 534 -324 1043 -710 1430 -408 407
-926 666 -1525 760 -124 20 -568 29 -700 14z m-140 -236 c251 -68 567 -390
827 -843 298 -517 538 -1211 647 -1865 76 -454 86 -887 30 -1215 -54 -313
-179 -541 -343 -623 -88 -44 -155 -53 -252 -33 -438 91 -954 807 -1280 1776
-321 958 -396 1898 -194 2436 81 214 221 357 376 383 62 10 110 6 189 -16z"/>
        <path d="M18465 11844 c-76 -63 -232 -159 -346 -213 -236 -111 -467 -175 -783
-216 -146 -19 -515 -37 -585 -28 l-51 6 -2 -1624 -3 -1624 -37 -106 c-44 -128
-115 -272 -173 -354 -50 -70 -179 -197 -248 -244 -74 -50 -195 -108 -267 -126
-191 -50 -411 4 -538 132 -71 71 -112 141 -152 260 -62 187 -60 102 -67 2221
-3 1062 -8 1932 -10 1932 -1 0 -33 -25 -70 -55 -38 -30 -115 -82 -172 -116
-359 -214 -811 -318 -1345 -307 l-179 3 7 -1577 c4 -975 10 -1609 17 -1660 33
-264 118 -502 247 -683 157 -223 417 -417 712 -530 310 -120 724 -152 1078
-84 221 43 478 148 670 276 214 141 391 370 498 642 l33 86 1 -527 0 -528 894
0 895 0 3 2533 c2 1392 3 2533 3 2534 0 0 -13 -10 -30 -23z"/>
        <path d="M2124 11837 c24 -98 1409 -4295 1443 -4377 111 -261 263 -452 428
-537 220 -113 519 -151 1093 -139 l303 6 -6 -22 c-21 -70 -101 -272 -151 -383
-62 -137 -164 -322 -245 -441 -130 -193 -360 -438 -526 -561 -294 -218 -641
-355 -1043 -412 -268 -39 -436 -36 -601 10 -217 59 -385 206 -471 411 -16 38
-28 73 -26 78 2 5 25 -17 51 -50 105 -132 279 -241 441 -276 108 -23 302 -15
401 16 149 47 274 131 376 253 250 298 235 756 -34 1043 -151 162 -341 244
-568 244 -176 0 -289 -31 -423 -117 -190 -122 -309 -298 -358 -529 -19 -92
-23 -139 -23 -299 0 -163 3 -205 23 -294 65 -289 194 -514 423 -737 223 -216
488 -336 861 -389 307 -44 565 14 823 183 88 58 272 242 347 347 198 280 380
634 583 1135 204 504 683 1824 1463 4035 301 853 333 956 367 1182 46 306 -12
510 -167 589 -97 49 -180 54 -938 54 l-695 0 64 -37 c94 -56 238 -180 318
-275 194 -229 346 -536 412 -835 71 -318 78 -746 20 -1218 -58 -471 -176
-1055 -315 -1550 -56 -202 -206 -665 -214 -665 -4 0 -367 1029 -808 2288
l-800 2287 -917 3 -917 2 6 -23z"/>
        <path d="M13282 5830 c-257 -67 -422 -281 -422 -545 0 -165 51 -288 164 -401
116 -116 241 -164 422 -164 154 0 297 43 383 115 l31 27 0 209 0 209 -60 0
-60 0 0 -188 0 -188 -37 -21 c-79 -43 -143 -57 -253 -57 -81 1 -118 6 -164 23
-112 40 -194 107 -249 202 -80 139 -76 346 9 481 141 223 477 282 695 123 l51
-38 36 37 37 37 -40 36 c-123 108 -354 152 -543 103z"/>
        <path d="M16872 5830 c-103 -27 -187 -75 -257 -145 -218 -218 -216 -589 4
-805 113 -111 240 -160 416 -160 157 0 277 39 366 120 l44 39 -37 37 -36 37
-40 -32 c-187 -148 -471 -128 -636 45 -133 139 -164 361 -75 536 27 53 112
143 164 174 173 101 400 89 545 -27 l41 -33 36 37 37 37 -28 29 c-33 34 -124
85 -193 107 -26 8 -100 17 -163 20 -93 3 -129 0 -188 -16z"/>
        <path d="M12141 5798 c-10 -24 -121 -266 -246 -538 -125 -272 -229 -503 -232
-512 -5 -16 2 -18 54 -18 l60 0 65 143 64 142 314 0 314 0 63 -140 62 -140 65
-3 65 -3 -146 318 c-80 175 -194 424 -253 553 l-107 235 -62 3 -61 3 -19 -43z
m212 -376 c70 -158 127 -290 127 -294 0 -5 -119 -8 -264 -8 l-264 0 132 295
c72 162 133 294 136 294 3 0 62 -129 133 -287z"/>
        <path d="M14190 5285 l0 -555 395 0 395 0 0 50 0 50 -335 0 -335 0 0 205 0
205 285 0 285 0 0 50 0 50 -285 0 -285 0 0 200 0 200 320 0 320 0 0 50 0 50
-380 0 -380 0 0 -555z"/>
        <path d="M15260 5285 l0 -555 55 0 55 0 0 446 c0 367 2 445 13 436 7 -6 168
-207 358 -447 l344 -435 53 0 52 0 0 555 0 555 -60 0 -60 0 -2 -447 -3 -447
-355 447 -354 447 -48 0 -48 0 0 -555z"/>
        <path d="M17500 5835 c0 -3 99 -168 220 -366 l220 -360 0 -189 0 -190 60 0 60
0 0 193 0 193 201 330 c111 181 210 344 221 362 l20 32 -60 0 -60 0 -189 -309
c-103 -170 -191 -306 -195 -302 -4 3 -90 142 -191 306 l-183 300 -62 3 c-34 2
-62 0 -62 -3z"/>
    </g>
</svg>
